<svg width="32" height="32" viewBox="0 0 32 32" fill="none" xmlns="http://www.w3.org/2000/svg">
  <defs>
    <linearGradient id="flame" x1="16" y1="3" x2="16" y2="29" gradientUnits="userSpaceOnUse">
      <stop offset="0" stop-color="#f8c879"/>
      <stop offset="0.45" stop-color="#f2a33c"/>
      <stop offset="1" stop-color="#d9602e"/>
    </linearGradient>
    <linearGradient id="inner" x1="16" y1="14" x2="16" y2="28" gradientUnits="userSpaceOnUse">
      <stop offset="0" stop-color="#fff4dd"/>
      <stop offset="1" stop-color="#f8c879"/>
    </linearGradient>
  </defs>
  <rect width="32" height="32" rx="8" fill="#13100e"/>
  <path d="M16 3c-4.5 5.5-8 9-8 15a8 8 0 0 0 16 0c0-4-2.2-6.5-4.2-9.4.2 2.6-.8 4-2.3 4.6C18.2 11 17 6.5 16 3z" fill="url(#flame)"/>
  <path d="M16 15.5c-2.4 3-4 5-4 7.5a4 4 0 0 0 8 0c0-2.4-1.4-4.2-2.6-6 .1 1.4-.5 2.2-1.4 2.6.4-1.7 0-3.1 0-4.1z" fill="url(#inner)"/>
</svg>
